<svg xmlns="http://www.w3.org/2000/svg" width="1600" height="900"><path d="M777,471L819,487L886,421Z" fill="#638cad" stroke="#638cad" stroke-width="1.51"/><path d="M886,421L724,387L777,471Z" fill="#648eb0" stroke="#648eb0" stroke-width="1.51"/><path d="M886,421L720,291L724,387Z" fill="#6a95b9" stroke="#6a95b9" stroke-width="1.51"/><path d="M952,522L936,394L886,421Z" fill="#6690b0" stroke="#6690b0" stroke-width="1.51"/><path d="M877,235L720,291L886,421Z" fill="#6e9bbd" stroke="#6e9bbd" stroke-width="1.51"/><path d="M819,487L952,522L886,421Z" fill="#6590af" stroke="#6590af" stroke-width="1.51"/><path d="M936,394L877,235L886,421Z" fill="#6d9aba" stroke="#6d9aba" stroke-width="1.51"/><path d="M819,487L812,618L952,522Z" fill="#6793b0" stroke="#6793b0" stroke-width="1.51"/><path d="M777,471L812,618L819,487Z" fill="#658faf" stroke="#658faf" stroke-width="1.51"/><path d="M667,591L812,618L777,471Z" fill="#6995b4" stroke="#6995b4" stroke-width="1.51"/><path d="M724,387L623,471L777,471Z" fill="#6792b5" stroke="#6792b5" stroke-width="1.51"/><path d="M720,291L621,404L724,387Z" fill="#709dc0" stroke="#709dc0" stroke-width="1.51"/><path d="M621,404L623,471L724,387Z" fill="#6c98bc" stroke="#6c98bc" stroke-width="1.51"/><path d="M936,394L977,268L877,235Z" fill="#72a1c1" stroke="#72a1c1" stroke-width="1.51"/><path d="M1108,316L977,268L936,394Z" fill="#72a1bf" stroke="#72a1bf" stroke-width="1.51"/><path d="M720,291L658,248L621,404Z" fill="#75a4c7" stroke="#75a4c7" stroke-width="1.51"/><path d="M877,235L747,212L720,291Z" fill="#74a3c7" stroke="#74a3c7" stroke-width="1.51"/><path d="M623,471L667,591L777,471Z" fill="#6a96b7" stroke="#6a96b7" stroke-width="1.51"/><path d="M747,212L658,248L720,291Z" fill="#78a7cc" stroke="#78a7cc" stroke-width="1.51"/><path d="M667,591L725,651L812,618Z" fill="#6c9ab6" stroke="#6c9ab6" stroke-width="1.51"/><path d="M877,235L869,175L747,212Z" fill="#77a7cb" stroke="#77a7cb" stroke-width="1.51"/><path d="M927,188L869,175L877,235Z" fill="#7aaacd" stroke="#7aaacd" stroke-width="1.51"/><path d="M977,268L927,188L877,235Z" fill="#78a8c9" stroke="#78a8c9" stroke-width="1.51"/><path d="M952,522L1062,511L936,394Z" fill="#6894b1" stroke="#6894b1" stroke-width="1.51"/><path d="M1042,571L1062,511L952,522Z" fill="#6a99b3" stroke="#6a99b3" stroke-width="1.51"/><path d="M812,618L969,633L952,522Z" fill="#6a98b3" stroke="#6a98b3" stroke-width="1.51"/><path d="M869,708L969,633L812,618Z" fill="#6b9bb4" stroke="#6b9bb4" stroke-width="1.51"/><path d="M969,633L1042,571L952,522Z" fill="#6b9ab3" stroke="#6b9ab3" stroke-width="1.51"/><path d="M725,651L763,699L812,618Z" fill="#6b9ab5" stroke="#6b9ab5" stroke-width="1.51"/><path d="M651,743L763,699L725,651Z" fill="#70a1ba" stroke="#70a1ba" stroke-width="1.51"/><path d="M763,699L869,708L812,618Z" fill="#6b99b3" stroke="#6b99b3" stroke-width="1.51"/><path d="M621,404L528,382L623,471Z" fill="#709ec1" stroke="#709ec1" stroke-width="1.51"/><path d="M623,471L541,658L667,591Z" fill="#71a0bf" stroke="#71a0bf" stroke-width="1.51"/><path d="M658,248L528,382L621,404Z" fill="#76a5c9" stroke="#76a5c9" stroke-width="1.51"/><path d="M1062,511L1121,414L936,394Z" fill="#6996b2" stroke="#6996b2" stroke-width="1.51"/><path d="M1096,203L933,100L927,188Z" fill="#7fb2d3" stroke="#7fb2d3" stroke-width="1.51"/><path d="M1160,407L1121,414L1229,522Z" fill="#6b9bb4" stroke="#6b9bb4" stroke-width="1.51"/><path d="M1121,414L1108,316L936,394Z" fill="#6f9eba" stroke="#6f9eba" stroke-width="1.51"/><path d="M528,382L484,470L623,471Z" fill="#719fc2" stroke="#719fc2" stroke-width="1.51"/><path d="M667,591L651,743L725,651Z" fill="#71a1bc" stroke="#71a1bc" stroke-width="1.51"/><path d="M1121,414L1160,407L1108,316Z" fill="#70a0bb" stroke="#70a0bb" stroke-width="1.51"/><path d="M1229,522L1121,414L1062,511Z" fill="#6b9bb4" stroke="#6b9bb4" stroke-width="1.51"/><path d="M927,188L933,100L869,175Z" fill="#7eb1d2" stroke="#7eb1d2" stroke-width="1.51"/><path d="M869,175L866,83L747,212Z" fill="#7cacd0" stroke="#7cacd0" stroke-width="1.51"/><path d="M747,212L585,159L658,248Z" fill="#7fb0d5" stroke="#7fb0d5" stroke-width="1.51"/><path d="M1096,203L927,188L977,268Z" fill="#7aaccc" stroke="#7aaccc" stroke-width="1.51"/><path d="M933,100L866,83L869,175Z" fill="#81b3d6" stroke="#81b3d6" stroke-width="1.51"/><path d="M1108,316L1096,203L977,268Z" fill="#78aac7" stroke="#78aac7" stroke-width="1.51"/><path d="M1182,236L1096,203L1108,316Z" fill="#7baeca" stroke="#7baeca" stroke-width="1.51"/><path d="M658,248L517,238L528,382Z" fill="#7eaed3" stroke="#7eaed3" stroke-width="1.51"/><path d="M528,382L400,404L484,470Z" fill="#77a7cb" stroke="#77a7cb" stroke-width="1.51"/><path d="M612,59L585,159L747,212Z" fill="#85b8de" stroke="#85b8de" stroke-width="1.51"/><path d="M585,159L517,238L658,248Z" fill="#82b5da" stroke="#82b5da" stroke-width="1.51"/><path d="M869,708L925,769L969,633Z" fill="#6ea0b5" stroke="#6ea0b5" stroke-width="1.51"/><path d="M1093,764L1175,578L1042,571Z" fill="#70a3b6" stroke="#70a3b6" stroke-width="1.51"/><path d="M1042,571L1175,578L1062,511Z" fill="#6d9db4" stroke="#6d9db4" stroke-width="1.51"/><path d="M829,851L925,769L869,708Z" fill="#6fa2b6" stroke="#6fa2b6" stroke-width="1.51"/><path d="M541,658L651,743L667,591Z" fill="#74a6c0" stroke="#74a6c0" stroke-width="1.51"/><path d="M763,699L748,822L869,708Z" fill="#6d9eb5" stroke="#6d9eb5" stroke-width="1.51"/><path d="M484,470L541,658L623,471Z" fill="#73a2c3" stroke="#73a2c3" stroke-width="1.51"/><path d="M1093,764L1042,571L969,633Z" fill="#6fa1b6" stroke="#6fa1b6" stroke-width="1.51"/><path d="M502,169L448,275L517,238Z" fill="#87bbe1" stroke="#87bbe1" stroke-width="1.51"/><path d="M517,238L448,275L528,382Z" fill="#80b2d7" stroke="#80b2d7" stroke-width="1.51"/><path d="M866,83L737,26L747,212Z" fill="#7eafd4" stroke="#7eafd4" stroke-width="1.51"/><path d="M585,159L502,169L517,238Z" fill="#88bce1" stroke="#88bce1" stroke-width="1.51"/><path d="M740,-9L737,26L825,-57Z" fill="#6388a4" stroke="#6388a4" stroke-width="1.51"/><path d="M558,22L502,169L585,159Z" fill="#8ec3e9" stroke="#8ec3e9" stroke-width="1.51"/><path d="M1267,293L1182,236L1108,316Z" fill="#7aaec7" stroke="#7aaec7" stroke-width="1.51"/><path d="M1096,203L1078,33L933,100Z" fill="#84bad8" stroke="#84bad8" stroke-width="1.51"/><path d="M1267,293L1108,316L1160,407Z" fill="#74a7c1" stroke="#74a7c1" stroke-width="1.51"/><path d="M651,743L748,822L763,699Z" fill="#71a4bb" stroke="#71a4bb" stroke-width="1.51"/><path d="M587,818L748,822L651,743Z" fill="#74a7be" stroke="#74a7be" stroke-width="1.51"/><path d="M484,470L428,543L541,658Z" fill="#78a9c9" stroke="#78a9c9" stroke-width="1.51"/><path d="M400,404L428,543L484,470Z" fill="#78a7ca" stroke="#78a7ca" stroke-width="1.51"/><path d="M737,26L612,59L747,212Z" fill="#81b3d7" stroke="#81b3d7" stroke-width="1.51"/><path d="M448,275L400,404L528,382Z" fill="#7dafd4" stroke="#7dafd4" stroke-width="1.51"/><path d="M1175,578L1229,522L1062,511Z" fill="#6d9fb5" stroke="#6d9fb5" stroke-width="1.51"/><path d="M541,658L512,710L651,743Z" fill="#79acc5" stroke="#79acc5" stroke-width="1.51"/><path d="M442,623L512,710L541,658Z" fill="#7bafca" stroke="#7bafca" stroke-width="1.51"/><path d="M435,727L442,623L277,649Z" fill="#81b7d3" stroke="#81b7d3" stroke-width="1.51"/><path d="M428,543L442,623L541,658Z" fill="#7aadcb" stroke="#7aadcb" stroke-width="1.51"/><path d="M748,822L829,851L869,708Z" fill="#6d9eb3" stroke="#6d9eb3" stroke-width="1.51"/><path d="M925,769L1093,764L969,633Z" fill="#70a4b7" stroke="#70a4b7" stroke-width="1.51"/><path d="M829,851L949,832L925,769Z" fill="#6a9bad" stroke="#6a9bad" stroke-width="1.51"/><path d="M1175,578L1290,547L1229,522Z" fill="#70a3b7" stroke="#70a3b7" stroke-width="1.51"/><path d="M737,26L592,-13L612,59Z" fill="#729cbc" stroke="#729cbc" stroke-width="1.51"/><path d="M825,-57L737,26L866,83Z" fill="#6890ae" stroke="#6890ae" stroke-width="1.51"/><path d="M825,-57L866,83L956,-100Z" fill="#60859e" stroke="#60859e" stroke-width="1.51"/><path d="M1042,828L1093,764L925,769Z" fill="#73a8b8" stroke="#73a8b8" stroke-width="1.51"/><path d="M541,826L587,818L512,710Z" fill="#7cb3c9" stroke="#7cb3c9" stroke-width="1.51"/><path d="M512,710L587,818L651,743Z" fill="#79aec6" stroke="#79aec6" stroke-width="1.51"/><path d="M748,822L818,947L829,851Z" fill="#5e869a" stroke="#5e869a" stroke-width="1.51"/><path d="M983,973L1042,828L949,832Z" fill="#628d9c" stroke="#628d9c" stroke-width="1.51"/><path d="M949,832L1042,828L925,769Z" fill="#6da0b1" stroke="#6da0b1" stroke-width="1.51"/><path d="M1182,236L1195,147L1096,203Z" fill="#81b6d1" stroke="#81b6d1" stroke-width="1.51"/><path d="M1286,144L1195,147L1182,236Z" fill="#84bbd5" stroke="#84bbd5" stroke-width="1.51"/><path d="M1296,388L1267,293L1160,407Z" fill="#74a7bf" stroke="#74a7bf" stroke-width="1.51"/><path d="M1195,147L1078,33L1096,203Z" fill="#86bdd9" stroke="#86bdd9" stroke-width="1.51"/><path d="M1229,522L1296,388L1160,407Z" fill="#6d9eb6" stroke="#6d9eb6" stroke-width="1.51"/><path d="M612,59L558,22L585,159Z" fill="#83b5d8" stroke="#83b5d8" stroke-width="1.51"/><path d="M502,169L379,216L448,275Z" fill="#8bbfe6" stroke="#8bbfe6" stroke-width="1.51"/><path d="M592,-13L558,22L612,59Z" fill="#75a0c1" stroke="#75a0c1" stroke-width="1.51"/><path d="M740,-9L592,-13L737,26Z" fill="#6b92b0" stroke="#6b92b0" stroke-width="1.51"/><path d="M956,-100L866,83L933,100Z" fill="#6e98b4" stroke="#6e98b4" stroke-width="1.51"/><path d="M448,275L335,306L400,404Z" fill="#84b7dc" stroke="#84b7dc" stroke-width="1.51"/><path d="M445,16L379,216L502,169Z" fill="#92c9f0" stroke="#92c9f0" stroke-width="1.51"/><path d="M1229,522L1290,547L1296,388Z" fill="#6fa0b6" stroke="#6fa0b6" stroke-width="1.51"/><path d="M1305,742L1290,547L1175,578Z" fill="#73a8b9" stroke="#73a8b9" stroke-width="1.51"/><path d="M1237,758L1175,578L1093,764Z" fill="#73aab9" stroke="#73aab9" stroke-width="1.51"/><path d="M594,-158L592,-13L740,-9Z" fill="#5f819b" stroke="#5f819b" stroke-width="1.51"/><path d="M705,971L818,947L748,822Z" fill="#597e92" stroke="#597e92" stroke-width="1.51"/><path d="M435,727L541,826L512,710Z" fill="#7eb5cd" stroke="#7eb5cd" stroke-width="1.51"/><path d="M442,623L435,727L512,710Z" fill="#7eb2cd" stroke="#7eb2cd" stroke-width="1.51"/><path d="M277,649L442,623L428,543Z" fill="#80b4d2" stroke="#80b4d2" stroke-width="1.51"/><path d="M266,494L428,543L400,404Z" fill="#7cadd0" stroke="#7cadd0" stroke-width="1.51"/><path d="M379,216L335,306L448,275Z" fill="#8abee4" stroke="#8abee4" stroke-width="1.51"/><path d="M1078,33L956,-100L933,100Z" fill="#6b95ae" stroke="#6b95ae" stroke-width="1.51"/><path d="M1195,147L1146,11L1078,33Z" fill="#7badc6" stroke="#7badc6" stroke-width="1.51"/><path d="M1263,54L1146,11L1195,147Z" fill="#7eb2ca" stroke="#7eb2ca" stroke-width="1.51"/><path d="M829,851L818,947L949,832Z" fill="#5f889a" stroke="#5f889a" stroke-width="1.51"/><path d="M705,971L748,822L587,818Z" fill="#6590a5" stroke="#6590a5" stroke-width="1.51"/><path d="M335,306L290,354L400,404Z" fill="#84b8dd" stroke="#84b8dd" stroke-width="1.51"/><path d="M174,280L290,354L335,306Z" fill="#86b9de" stroke="#86b9de" stroke-width="1.51"/><path d="M1167,832L1237,758L1093,764Z" fill="#76afbb" stroke="#76afbb" stroke-width="1.51"/><path d="M1167,832L1093,764L1042,828Z" fill="#71a6b3" stroke="#71a6b3" stroke-width="1.51"/><path d="M1070,970L1167,832L1042,828Z" fill="#64929e" stroke="#64929e" stroke-width="1.51"/><path d="M1083,-63L956,-100L1078,33Z" fill="#5f859a" stroke="#5f859a" stroke-width="1.51"/><path d="M594,-158L475,-35L592,-13Z" fill="#62849e" stroke="#62849e" stroke-width="1.51"/><path d="M1267,293L1286,144L1182,236Z" fill="#80b7cf" stroke="#80b7cf" stroke-width="1.51"/><path d="M1402,285L1286,144L1267,293Z" fill="#7eb5cb" stroke="#7eb5cb" stroke-width="1.51"/><path d="M1429,493L1400,389L1296,388Z" fill="#6895aa" stroke="#6895aa" stroke-width="1.51"/><path d="M1296,388L1402,285L1267,293Z" fill="#77abc1" stroke="#77abc1" stroke-width="1.51"/><path d="M1305,742L1346,584L1290,547Z" fill="#73a9b7" stroke="#73a9b7" stroke-width="1.51"/><path d="M1146,11L1083,-63L1078,33Z" fill="#6a94a9" stroke="#6a94a9" stroke-width="1.51"/><path d="M1155,-127L1083,-63L1146,11Z" fill="#5e8394" stroke="#5e8394" stroke-width="1.51"/><path d="M379,216L252,182L335,306Z" fill="#90c7ee" stroke="#90c7ee" stroke-width="1.51"/><path d="M558,22L445,16L502,169Z" fill="#86b7db" stroke="#86b7db" stroke-width="1.51"/><path d="M475,-35L445,16L558,22Z" fill="#75a1bf" stroke="#75a1bf" stroke-width="1.51"/><path d="M475,-35L558,22L592,-13Z" fill="#719ab8" stroke="#719ab8" stroke-width="1.51"/><path d="M290,354L266,494L400,404Z" fill="#81b2d7" stroke="#81b2d7" stroke-width="1.51"/><path d="M590,999L705,971L587,818Z" fill="#5d8397" stroke="#5d8397" stroke-width="1.51"/><path d="M752,-153L740,-9L825,-57Z" fill="#55748c" stroke="#55748c" stroke-width="1.51"/><path d="M1286,144L1263,54L1195,147Z" fill="#8ac3dd" stroke="#8ac3dd" stroke-width="1.51"/><path d="M818,1073L983,973L818,947Z" fill="#4a6777" stroke="#4a6777" stroke-width="1.51"/><path d="M818,947L983,973L949,832Z" fill="#597f8f" stroke="#597f8f" stroke-width="1.51"/><path d="M862,-201L752,-153L825,-57Z" fill="#465e72" stroke="#465e72" stroke-width="1.51"/><path d="M1429,493L1296,388L1290,547Z" fill="#6a9aaf" stroke="#6a9aaf" stroke-width="1.51"/><path d="M1441,14L1272,-9L1263,54Z" fill="#72a1b2" stroke="#72a1b2" stroke-width="1.51"/><path d="M1346,584L1429,493L1290,547Z" fill="#6a9bad" stroke="#6a9bad" stroke-width="1.51"/><path d="M1237,758L1305,742L1175,578Z" fill="#75acba" stroke="#75acba" stroke-width="1.51"/><path d="M1350,864L1305,742L1237,758Z" fill="#79b4bc" stroke="#79b4bc" stroke-width="1.51"/><path d="M1350,864L1237,758L1167,832Z" fill="#72a9b2" stroke="#72a9b2" stroke-width="1.51"/><path d="M1263,54L1217,-13L1146,11Z" fill="#72a0b4" stroke="#72a0b4" stroke-width="1.51"/><path d="M496,987L590,999L541,826Z" fill="#61879b" stroke="#61879b" stroke-width="1.51"/><path d="M541,826L590,999L587,818Z" fill="#6995a9" stroke="#6995a9" stroke-width="1.51"/><path d="M266,494L277,649L428,543Z" fill="#82b6d5" stroke="#82b6d5" stroke-width="1.51"/><path d="M1400,389L1402,285L1296,388Z" fill="#6e9fb4" stroke="#6e9fb4" stroke-width="1.51"/><path d="M983,973L1070,970L1042,828Z" fill="#5a828f" stroke="#5a828f" stroke-width="1.51"/><path d="M1400,389L1510,310L1402,285Z" fill="#6894a8" stroke="#6894a8" stroke-width="1.51"/><path d="M1430,578L1429,493L1346,584Z" fill="#6593a3" stroke="#6593a3" stroke-width="1.51"/><path d="M445,16L320,61L379,216Z" fill="#94caf1" stroke="#94caf1" stroke-width="1.51"/><path d="M179,365L205,514L266,494Z" fill="#739fbf" stroke="#739fbf" stroke-width="1.51"/><path d="M329,-80L320,61L445,16Z" fill="#7da9c9" stroke="#7da9c9" stroke-width="1.51"/><path d="M320,61L252,182L379,216Z" fill="#98d1f8" stroke="#98d1f8" stroke-width="1.51"/><path d="M475,-35L449,-94L445,16Z" fill="#6e96b2" stroke="#6e96b2" stroke-width="1.51"/><path d="M752,-153L594,-158L740,-9Z" fill="#516f85" stroke="#516f85" stroke-width="1.51"/><path d="M380,888L541,826L435,727Z" fill="#7db2c8" stroke="#7db2c8" stroke-width="1.51"/><path d="M705,971L818,1073L818,947Z" fill="#496677" stroke="#496677" stroke-width="1.51"/><path d="M1012,1084L1102,1041L1070,970Z" fill="#486670" stroke="#486670" stroke-width="1.51"/><path d="M266,494L224,602L277,649Z" fill="#7dafcd" stroke="#7dafcd" stroke-width="1.51"/><path d="M179,365L266,494L290,354Z" fill="#7baacd" stroke="#7baacd" stroke-width="1.51"/><path d="M956,-100L862,-201L825,-57Z" fill="#4b667a" stroke="#4b667a" stroke-width="1.51"/><path d="M1083,-63L1089,-140L956,-100Z" fill="#537383" stroke="#537383" stroke-width="1.51"/><path d="M1155,-127L1089,-140L1083,-63Z" fill="#527381" stroke="#527381" stroke-width="1.51"/><path d="M205,514L224,602L266,494Z" fill="#78a7c6" stroke="#78a7c6" stroke-width="1.51"/><path d="M277,649L262,700L435,727Z" fill="#86bed9" stroke="#86bed9" stroke-width="1.51"/><path d="M752,-153L862,-201L594,-158Z" fill="#41586a" stroke="#41586a" stroke-width="1.51"/><path d="M1011,-192L862,-201L956,-100Z" fill="#425b6a" stroke="#425b6a" stroke-width="1.51"/><path d="M1217,-13L1155,-127L1146,11Z" fill="#628a9c" stroke="#628a9c" stroke-width="1.51"/><path d="M1263,54L1272,-9L1217,-13Z" fill="#719fb2" stroke="#719fb2" stroke-width="1.51"/><path d="M1388,130L1263,54L1286,144Z" fill="#89c3da" stroke="#89c3da" stroke-width="1.51"/><path d="M224,602L262,700L277,649Z" fill="#7fb3cf" stroke="#7fb3cf" stroke-width="1.51"/><path d="M1443,762L1430,578L1346,584Z" fill="#6898a4" stroke="#6898a4" stroke-width="1.51"/><path d="M519,-177L449,-94L475,-35Z" fill="#5e7f97" stroke="#5e7f97" stroke-width="1.51"/><path d="M262,700L337,837L435,727Z" fill="#87c0d9" stroke="#87c0d9" stroke-width="1.51"/><path d="M1402,285L1388,130L1286,144Z" fill="#7eb3c9" stroke="#7eb3c9" stroke-width="1.51"/><path d="M1554,127L1388,130L1402,285Z" fill="#73a2b7" stroke="#73a2b7" stroke-width="1.51"/><path d="M337,837L380,888L435,727Z" fill="#80b6cc" stroke="#80b6cc" stroke-width="1.51"/><path d="M1089,-140L1011,-192L956,-100Z" fill="#486472" stroke="#486472" stroke-width="1.51"/><path d="M1305,-135L1155,-127L1217,-13Z" fill="#597c89" stroke="#597c89" stroke-width="1.51"/><path d="M1089,-140L1155,-127L1011,-192Z" fill="#486470" stroke="#486470" stroke-width="1.51"/><path d="M174,280L179,365L290,354Z" fill="#7cabcd" stroke="#7cabcd" stroke-width="1.51"/><path d="M590,999L646,1046L705,971Z" fill="#4f6d7f" stroke="#4f6d7f" stroke-width="1.51"/><path d="M546,1069L646,1046L590,999Z" fill="#4c6879" stroke="#4c6879" stroke-width="1.51"/><path d="M742,1097L818,1073L705,971Z" fill="#425b6b" stroke="#425b6b" stroke-width="1.51"/><path d="M380,888L496,987L541,826Z" fill="#6c97ac" stroke="#6c97ac" stroke-width="1.51"/><path d="M166,165L174,280L252,182Z" fill="#84b5d7" stroke="#84b5d7" stroke-width="1.51"/><path d="M252,182L174,280L335,306Z" fill="#89bce1" stroke="#89bce1" stroke-width="1.51"/><path d="M594,-158L519,-177L475,-35Z" fill="#57758b" stroke="#57758b" stroke-width="1.51"/><path d="M862,-201L519,-177L594,-158Z" fill="#445b6c" stroke="#445b6c" stroke-width="1.51"/><path d="M546,1069L742,1097L646,1046Z" fill="#445c6d" stroke="#445c6d" stroke-width="1.51"/><path d="M646,1046L742,1097L705,971Z" fill="#476171" stroke="#476171" stroke-width="1.51"/><path d="M1012,1084L983,973L818,1073Z" fill="#435d6b" stroke="#435d6b" stroke-width="1.51"/><path d="M1012,1084L1070,970L983,973Z" fill="#4b6a76" stroke="#4b6a76" stroke-width="1.51"/><path d="M1070,970L1212,992L1167,832Z" fill="#5b858e" stroke="#5b858e" stroke-width="1.51"/><path d="M1305,742L1443,762L1346,584Z" fill="#6fa3ae" stroke="#6fa3ae" stroke-width="1.51"/><path d="M519,-177L421,-132L449,-94Z" fill="#58768c" stroke="#58768c" stroke-width="1.51"/><path d="M449,-94L329,-80L445,16Z" fill="#6e95b0" stroke="#6e95b0" stroke-width="1.51"/><path d="M158,84L166,165L252,182Z" fill="#89bbde" stroke="#89bbde" stroke-width="1.51"/><path d="M496,987L546,1069L590,999Z" fill="#527083" stroke="#527083" stroke-width="1.51"/><path d="M380,888L452,998L496,987Z" fill="#62899c" stroke="#62899c" stroke-width="1.51"/><path d="M417,1052L452,998L273,993Z" fill="#5c7d90" stroke="#5c7d90" stroke-width="1.51"/><path d="M742,1097L1012,1084L818,1073Z" fill="#3a505f" stroke="#3a505f" stroke-width="1.51"/><path d="M1273,963L1350,864L1167,832Z" fill="#65969d" stroke="#65969d" stroke-width="1.51"/><path d="M1166,1033L1070,970L1102,1041Z" fill="#4c6c75" stroke="#4c6c75" stroke-width="1.51"/><path d="M1166,1033L1212,992L1070,970Z" fill="#4f727b" stroke="#4f727b" stroke-width="1.51"/><path d="M1519,476L1429,493L1430,578Z" fill="#5d8697" stroke="#5d8697" stroke-width="1.51"/><path d="M1519,476L1400,389L1429,493Z" fill="#5c8497" stroke="#5c8497" stroke-width="1.51"/><path d="M1536,412L1510,310L1400,389Z" fill="#5f869a" stroke="#5f869a" stroke-width="1.51"/><path d="M273,993L452,998L380,888Z" fill="#668ea2" stroke="#668ea2" stroke-width="1.51"/><path d="M262,700L215,773L337,837Z" fill="#87bfd6" stroke="#87bfd6" stroke-width="1.51"/><path d="M224,602L215,773L262,700Z" fill="#7eb1ca" stroke="#7eb1ca" stroke-width="1.51"/><path d="M89,579L215,773L224,602Z" fill="#73a2ba" stroke="#73a2ba" stroke-width="1.51"/><path d="M89,579L224,602L205,514Z" fill="#709cb6" stroke="#709cb6" stroke-width="1.51"/><path d="M1551,652L1519,476L1430,578Z" fill="#5a8290" stroke="#5a8290" stroke-width="1.51"/><path d="M421,-132L329,-80L449,-94Z" fill="#63859d" stroke="#63859d" stroke-width="1.51"/><path d="M158,84L252,182L320,61Z" fill="#93c8ee" stroke="#93c8ee" stroke-width="1.51"/><path d="M174,280L117,373L179,365Z" fill="#739cbc" stroke="#739cbc" stroke-width="1.51"/><path d="M1257,1096L1166,1033L1102,1041Z" fill="#46636a" stroke="#46636a" stroke-width="1.51"/><path d="M452,998L546,1069L496,987Z" fill="#557486" stroke="#557486" stroke-width="1.51"/><path d="M179,365L117,373L205,514Z" fill="#6e96b6" stroke="#6e96b6" stroke-width="1.51"/><path d="M64,321L117,373L174,280Z" fill="#6e96b4" stroke="#6e96b4" stroke-width="1.51"/><path d="M1257,1096L1273,963L1212,992Z" fill="#4e7177" stroke="#4e7177" stroke-width="1.51"/><path d="M1212,992L1273,963L1167,832Z" fill="#5d8890" stroke="#5d8890" stroke-width="1.51"/><path d="M1413,868L1443,762L1350,864Z" fill="#64949b" stroke="#64949b" stroke-width="1.51"/><path d="M1350,864L1443,762L1305,742Z" fill="#71a8af" stroke="#71a8af" stroke-width="1.51"/><path d="M1519,476L1536,412L1400,389Z" fill="#5a8093" stroke="#5a8093" stroke-width="1.51"/><path d="M117,373L94,504L205,514Z" fill="#678dab" stroke="#678dab" stroke-width="1.51"/><path d="M1272,-9L1305,-135L1217,-13Z" fill="#628c99" stroke="#628c99" stroke-width="1.51"/><path d="M1155,-127L1305,-135L1011,-192Z" fill="#4a6772" stroke="#4a6772" stroke-width="1.51"/><path d="M1373,-72L1305,-135L1272,-9Z" fill="#5d8490" stroke="#5d8490" stroke-width="1.51"/><path d="M1373,-72L1272,-9L1441,14Z" fill="#638c9a" stroke="#638c9a" stroke-width="1.51"/><path d="M1441,14L1263,54L1388,130Z" fill="#78a9bd" stroke="#78a9bd" stroke-width="1.51"/><path d="M1508,51L1441,14L1388,130Z" fill="#6e99ac" stroke="#6e99ac" stroke-width="1.51"/><path d="M1508,51L1388,130L1554,127Z" fill="#729fb3" stroke="#729fb3" stroke-width="1.51"/><path d="M1452,943L1413,868L1350,864Z" fill="#598388" stroke="#598388" stroke-width="1.51"/><path d="M86,155L64,321L174,280Z" fill="#729cba" stroke="#729cba" stroke-width="1.51"/><path d="M117,373L0,472L94,504Z" fill="#5c7e98" stroke="#5c7e98" stroke-width="1.51"/><path d="M166,-84L158,84L320,61Z" fill="#78a3c1" stroke="#78a3c1" stroke-width="1.51"/><path d="M94,504L89,579L205,514Z" fill="#688faa" stroke="#688faa" stroke-width="1.51"/><path d="M452,998L417,1052L546,1069Z" fill="#527082" stroke="#527082" stroke-width="1.51"/><path d="M546,1069L286,1112L742,1097Z" fill="#465e6f" stroke="#465e6f" stroke-width="1.51"/><path d="M273,993L380,888L337,837Z" fill="#73a0b5" stroke="#73a0b5" stroke-width="1.51"/><path d="M86,155L174,280L166,165Z" fill="#7ca9c9" stroke="#7ca9c9" stroke-width="1.51"/><path d="M94,504L0,472L89,579Z" fill="#5d8097" stroke="#5d8097" stroke-width="1.51"/><path d="M1443,762L1551,652L1430,578Z" fill="#608d97" stroke="#608d97" stroke-width="1.51"/><path d="M1519,476L1641,508L1536,412Z" fill="#4f6f81" stroke="#4f6f81" stroke-width="1.51"/><path d="M1573,754L1551,652L1443,762Z" fill="#5d878f" stroke="#5d878f" stroke-width="1.51"/><path d="M158,84L86,155L166,165Z" fill="#81afd0" stroke="#81afd0" stroke-width="1.51"/><path d="M1441,14L1447,-148L1373,-72Z" fill="#52727d" stroke="#52727d" stroke-width="1.51"/><path d="M1373,-72L1447,-148L1305,-135Z" fill="#4c6a73" stroke="#4c6a73" stroke-width="1.51"/><path d="M1554,127L1402,285L1510,310Z" fill="#6994a7" stroke="#6994a7" stroke-width="1.51"/><path d="M1413,868L1508,795L1443,762Z" fill="#629197" stroke="#629197" stroke-width="1.51"/><path d="M1675,289L1510,310L1536,412Z" fill="#56798c" stroke="#56798c" stroke-width="1.51"/><path d="M1670,168L1554,127L1510,310Z" fill="#61879a" stroke="#61879a" stroke-width="1.51"/><path d="M140,855L273,993L337,837Z" fill="#6f9baf" stroke="#6f9baf" stroke-width="1.51"/><path d="M140,855L337,837L215,773Z" fill="#7aacc0" stroke="#7aacc0" stroke-width="1.51"/><path d="M158,84L43,77L86,155Z" fill="#7aa5c3" stroke="#7aa5c3" stroke-width="1.51"/><path d="M329,-80L166,-84L320,61Z" fill="#759dba" stroke="#759dba" stroke-width="1.51"/><path d="M421,-132L286,-179L329,-80Z" fill="#5f7f96" stroke="#5f7f96" stroke-width="1.51"/><path d="M519,-177L286,-179L421,-132Z" fill="#547085" stroke="#547085" stroke-width="1.51"/><path d="M184,-211L286,-179L519,-177Z" fill="#536d81" stroke="#536d81" stroke-width="1.51"/><path d="M1413,868L1484,914L1508,795Z" fill="#578085" stroke="#578085" stroke-width="1.51"/><path d="M1273,963L1452,943L1350,864Z" fill="#5a8388" stroke="#5a8388" stroke-width="1.51"/><path d="M1166,1033L1257,1096L1212,992Z" fill="#49696f" stroke="#49696f" stroke-width="1.51"/><path d="M1012,1084L1257,1096L1102,1041Z" fill="#425d65" stroke="#425d65" stroke-width="1.51"/><path d="M742,1097L1257,1096L1012,1084Z" fill="#3c535e" stroke="#3c535e" stroke-width="1.51"/><path d="M102,852L140,855L42,762Z" fill="#648d9b" stroke="#648d9b" stroke-width="1.51"/><path d="M-30,298L5,368L64,321Z" fill="#5d7e98" stroke="#5d7e98" stroke-width="1.51"/><path d="M64,321L5,368L117,373Z" fill="#6286a1" stroke="#6286a1" stroke-width="1.51"/><path d="M42,762L140,855L215,773Z" fill="#6f9dad" stroke="#6f9dad" stroke-width="1.51"/><path d="M1398,1109L1452,943L1273,963Z" fill="#49696e" stroke="#49696e" stroke-width="1.51"/><path d="M5,368L0,472L117,373Z" fill="#5b7c96" stroke="#5b7c96" stroke-width="1.51"/><path d="M1551,652L1641,508L1519,476Z" fill="#517482" stroke="#517482" stroke-width="1.51"/><path d="M1508,795L1573,754L1443,762Z" fill="#608d93" stroke="#608d93" stroke-width="1.51"/><path d="M1621,796L1573,754L1508,795Z" fill="#598288" stroke="#598288" stroke-width="1.51"/><path d="M1657,637L1641,508L1551,652Z" fill="#4d6e7a" stroke="#4d6e7a" stroke-width="1.51"/><path d="M286,-179L166,-84L329,-80Z" fill="#608097" stroke="#608097" stroke-width="1.51"/><path d="M-29,172L-30,298L64,321Z" fill="#61829c" stroke="#61829c" stroke-width="1.51"/><path d="M1452,943L1484,914L1413,868Z" fill="#51767b" stroke="#51767b" stroke-width="1.51"/><path d="M140,855L167,999L273,993Z" fill="#5c7f8f" stroke="#5c7f8f" stroke-width="1.51"/><path d="M42,762L215,773L89,579Z" fill="#6c97aa" stroke="#6c97aa" stroke-width="1.51"/><path d="M1566,-55L1441,14L1508,51Z" fill="#587988" stroke="#587988" stroke-width="1.51"/><path d="M1566,-55L1447,-148L1441,14Z" fill="#4b6873" stroke="#4b6873" stroke-width="1.51"/><path d="M1305,-135L1490,-191L1011,-192Z" fill="#47656c" stroke="#47656c" stroke-width="1.51"/><path d="M1573,754L1621,698L1551,652Z" fill="#547a83" stroke="#547a83" stroke-width="1.51"/><path d="M1621,796L1621,698L1573,754Z" fill="#537980" stroke="#537980" stroke-width="1.51"/><path d="M-24,609L42,762L89,579Z" fill="#5d8294" stroke="#5d8294" stroke-width="1.51"/><path d="M99,-78L43,77L158,84Z" fill="#688ca5" stroke="#688ca5" stroke-width="1.51"/><path d="M1641,508L1672,410L1536,412Z" fill="#496678" stroke="#496678" stroke-width="1.51"/><path d="M1662,30L1566,-55L1508,51Z" fill="#506e7b" stroke="#506e7b" stroke-width="1.51"/><path d="M1783,425L1672,410L1798,462Z" fill="#3b4f5f" stroke="#3b4f5f" stroke-width="1.51"/><path d="M5,368L-157,361L0,472Z" fill="#4e697f" stroke="#4e697f" stroke-width="1.51"/><path d="M0,472L-24,609L89,579Z" fill="#57798e" stroke="#57798e" stroke-width="1.51"/><path d="M-29,172L64,321L86,155Z" fill="#6b90ab" stroke="#6b90ab" stroke-width="1.51"/><path d="M1621,698L1657,637L1551,652Z" fill="#50737d" stroke="#50737d" stroke-width="1.51"/><path d="M-107,598L-24,609L0,472Z" fill="#4e6c7e" stroke="#4e6c7e" stroke-width="1.51"/><path d="M1672,410L1675,289L1536,412Z" fill="#4e6b7e" stroke="#4e6b7e" stroke-width="1.51"/><path d="M2,832L117,934L102,852Z" fill="#587a87" stroke="#587a87" stroke-width="1.51"/><path d="M102,852L117,934L140,855Z" fill="#5e8391" stroke="#5e8391" stroke-width="1.51"/><path d="M273,993L286,1112L417,1052Z" fill="#577689" stroke="#577689" stroke-width="1.51"/><path d="M117,934L167,999L140,855Z" fill="#587a88" stroke="#587a88" stroke-width="1.51"/><path d="M417,1052L286,1112L546,1069Z" fill="#4f697b" stroke="#4f697b" stroke-width="1.51"/><path d="M742,1097L1398,1109L1257,1096Z" fill="#3d565e" stroke="#3d565e" stroke-width="1.51"/><path d="M210,1087L286,1112L273,993Z" fill="#526d7e" stroke="#526d7e" stroke-width="1.51"/><path d="M184,-211L99,-78L166,-84Z" fill="#4d6577" stroke="#4d6577" stroke-width="1.51"/><path d="M166,-84L99,-78L158,84Z" fill="#62839a" stroke="#62839a" stroke-width="1.51"/><path d="M1789,689L1791,650L1657,637Z" fill="#415b63" stroke="#415b63" stroke-width="1.51"/><path d="M1484,914L1621,796L1508,795Z" fill="#547a7f" stroke="#547a7f" stroke-width="1.51"/><path d="M1669,980L1621,796L1484,914Z" fill="#436063" stroke="#436063" stroke-width="1.51"/><path d="M-75,57L-29,172L43,77Z" fill="#678aa3" stroke="#678aa3" stroke-width="1.51"/><path d="M43,77L-29,172L86,155Z" fill="#7098b4" stroke="#7098b4" stroke-width="1.51"/><path d="M1662,30L1508,51L1554,127Z" fill="#5f8293" stroke="#5f8293" stroke-width="1.51"/><path d="M1675,289L1670,168L1510,310Z" fill="#58798c" stroke="#58798c" stroke-width="1.51"/><path d="M862,-201L184,-211L519,-177Z" fill="#475e70" stroke="#475e70" stroke-width="1.51"/><path d="M286,-179L184,-211L166,-84Z" fill="#4f697a" stroke="#4f697a" stroke-width="1.51"/><path d="M1452,943L1547,1108L1484,914Z" fill="#3e595c" stroke="#3e595c" stroke-width="1.51"/><path d="M1257,1096L1398,1109L1273,963Z" fill="#48686c" stroke="#48686c" stroke-width="1.51"/><path d="M286,1112L1398,1109L742,1097Z" fill="#364958" stroke="#364958" stroke-width="1.51"/><path d="M167,999L210,1087L273,993Z" fill="#526f7e" stroke="#526f7e" stroke-width="1.51"/><path d="M98,1048L210,1087L167,999Z" fill="#465e6b" stroke="#465e6b" stroke-width="1.51"/><path d="M1447,-148L1490,-191L1305,-135Z" fill="#3f575d" stroke="#3f575d" stroke-width="1.51"/><path d="M1011,-192L1490,-191L862,-201Z" fill="#3f5861" stroke="#3f5861" stroke-width="1.51"/><path d="M1566,-55L1490,-191L1447,-148Z" fill="#3b5057" stroke="#3b5057" stroke-width="1.51"/><path d="M1672,410L1722,294L1675,289Z" fill="#496576" stroke="#496576" stroke-width="1.51"/><path d="M1675,289L1727,214L1670,168Z" fill="#526f82" stroke="#526f82" stroke-width="1.51"/><path d="M1783,425L1722,294L1672,410Z" fill="#425a6a" stroke="#425a6a" stroke-width="1.51"/><path d="M117,934L98,1048L167,999Z" fill="#4a6472" stroke="#4a6472" stroke-width="1.51"/><path d="M42,762L2,832L102,852Z" fill="#5e8592" stroke="#5e8592" stroke-width="1.51"/><path d="M-54,770L2,832L42,762Z" fill="#5b818d" stroke="#5b818d" stroke-width="1.51"/><path d="M1566,-55L1616,-73L1490,-191Z" fill="#3a4e55" stroke="#3a4e55" stroke-width="1.51"/><path d="M1670,168L1662,30L1554,127Z" fill="#618598" stroke="#618598" stroke-width="1.51"/><path d="M1758,84L1662,30L1670,168Z" fill="#567385" stroke="#567385" stroke-width="1.51"/><path d="M1722,294L1727,214L1675,289Z" fill="#4c6879" stroke="#4c6879" stroke-width="1.51"/><path d="M1662,30L1616,-73L1566,-55Z" fill="#435a65" stroke="#435a65" stroke-width="1.51"/><path d="M-40,930L98,1048L117,934Z" fill="#445d67" stroke="#445d67" stroke-width="1.51"/><path d="M-24,609L-54,770L42,762Z" fill="#587c8a" stroke="#587c8a" stroke-width="1.51"/><path d="M-107,598L-54,770L-24,609Z" fill="#4f6e7b" stroke="#4f6e7b" stroke-width="1.51"/><path d="M-107,598L0,472L-171,473Z" fill="#465f71" stroke="#465f71" stroke-width="1.51"/><path d="M-157,361L5,368L-30,298Z" fill="#516d83" stroke="#516d83" stroke-width="1.51"/><path d="M-40,930L117,934L2,832Z" fill="#4c6973" stroke="#4c6973" stroke-width="1.51"/><path d="M-132,210L-128,276L-30,298Z" fill="#526e83" stroke="#526e83" stroke-width="1.51"/><path d="M-132,210L-30,298L-29,172Z" fill="#5a788f" stroke="#5a788f" stroke-width="1.51"/><path d="M-75,57L43,77L-87,-50Z" fill="#536e81" stroke="#536e81" stroke-width="1.51"/><path d="M1722,294L1783,425L1727,214Z" fill="#455d6e" stroke="#455d6e" stroke-width="1.51"/><path d="M1798,462L1672,410L1641,508Z" fill="#3f5666" stroke="#3f5666" stroke-width="1.51"/><path d="M1798,462L1641,508L1791,650Z" fill="#3d5461" stroke="#3d5461" stroke-width="1.51"/><path d="M-87,-50L43,77L99,-78Z" fill="#526c7e" stroke="#526c7e" stroke-width="1.51"/><path d="M-75,57L-132,210L-29,172Z" fill="#5e7e94" stroke="#5e7e94" stroke-width="1.51"/><path d="M1783,425L1758,84L1727,214Z" fill="#496273" stroke="#496273" stroke-width="1.51"/><path d="M1791,650L1641,508L1657,637Z" fill="#445f6b" stroke="#445f6b" stroke-width="1.51"/><path d="M-132,210L-157,361L-128,276Z" fill="#4a6376" stroke="#4a6376" stroke-width="1.51"/><path d="M-128,276L-157,361L-30,298Z" fill="#4d677b" stroke="#4d677b" stroke-width="1.51"/><path d="M184,-211L31,-179L99,-78Z" fill="#3f5361" stroke="#3f5361" stroke-width="1.51"/><path d="M-181,797L-40,930L-54,770Z" fill="#466269" stroke="#466269" stroke-width="1.51"/><path d="M-157,361L-171,473L0,472Z" fill="#425a6c" stroke="#425a6c" stroke-width="1.51"/><path d="M1662,30L1725,-92L1616,-73Z" fill="#3a4d57" stroke="#3a4d57" stroke-width="1.51"/><path d="M1727,214L1758,84L1670,168Z" fill="#547184" stroke="#547184" stroke-width="1.51"/><path d="M1798,462L1758,84L1783,425Z" fill="#405666" stroke="#405666" stroke-width="1.51"/><path d="M1789,689L1657,637L1621,698Z" fill="#47666e" stroke="#47666e" stroke-width="1.51"/><path d="M1789,689L1621,698L1621,796Z" fill="#4a6b71" stroke="#4a6b71" stroke-width="1.51"/><path d="M31,-179L4,-153L99,-78Z" fill="#3b4c59" stroke="#3b4c59" stroke-width="1.51"/><path d="M-54,770L-40,930L2,832Z" fill="#4d6c75" stroke="#4d6c75" stroke-width="1.51"/><path d="M-193,738L-54,770L-107,598Z" fill="#47646e" stroke="#47646e" stroke-width="1.51"/><path d="M1398,1109L1547,1108L1452,943Z" fill="#374d50" stroke="#374d50" stroke-width="1.51"/><path d="M-87,-50L-114,50L-75,57Z" fill="#496071" stroke="#496071" stroke-width="1.51"/><path d="M-75,57L-114,50L-132,210Z" fill="#5a788d" stroke="#5a788d" stroke-width="1.51"/><path d="M-132,210L-181,-69L-157,361Z" fill="#506b7e" stroke="#506b7e" stroke-width="1.51"/><path d="M1794,823L1789,689L1621,796Z" fill="#456367" stroke="#456367" stroke-width="1.51"/><path d="M1547,1108L1669,980L1484,914Z" fill="#34494b" stroke="#34494b" stroke-width="1.51"/><path d="M4,-153L-87,-50L99,-78Z" fill="#3f515f" stroke="#3f515f" stroke-width="1.51"/><path d="M1758,84L1725,-92L1662,30Z" fill="#405561" stroke="#405561" stroke-width="1.51"/><path d="M1616,-73L1686,-182L1490,-191Z" fill="#2c3b3f" stroke="#2c3b3f" stroke-width="1.51"/><path d="M1777,911L1794,823L1621,796Z" fill="#3c5559" stroke="#3c5559" stroke-width="1.51"/><path d="M1789,689L1794,823L1791,650Z" fill="#3d565c" stroke="#3d565c" stroke-width="1.51"/><path d="M1791,650L1794,823L1798,462Z" fill="#3a515a" stroke="#3a515a" stroke-width="1.51"/><path d="M1547,1108L1681,1029L1669,980Z" fill="#263436" stroke="#263436" stroke-width="1.51"/><path d="M1669,980L1777,911L1621,796Z" fill="#384f52" stroke="#384f52" stroke-width="1.51"/><path d="M1725,-92L1686,-182L1616,-73Z" fill="#2a373d" stroke="#2a373d" stroke-width="1.51"/><path d="M-171,473L-193,738L-107,598Z" fill="#3f5763" stroke="#3f5763" stroke-width="1.51"/><path d="M-193,738L-181,797L-54,770Z" fill="#466369" stroke="#466369" stroke-width="1.51"/><path d="M1731,1025L1777,911L1669,980Z" fill="#283638" stroke="#283638" stroke-width="1.51"/><path d="M4,-153L-107,-132L-87,-50Z" fill="#313f48" stroke="#313f48" stroke-width="1.51"/><path d="M-87,-50L-181,-69L-114,50Z" fill="#3b4c59" stroke="#3b4c59" stroke-width="1.51"/><path d="M-114,50L-181,-69L-132,210Z" fill="#4c6375" stroke="#4c6375" stroke-width="1.51"/><path d="M-157,361L-181,-69L-171,473Z" fill="#475f71" stroke="#475f71" stroke-width="1.51"/><path d="M31,-179L-107,-132L4,-153Z" fill="#2d3a43" stroke="#2d3a43" stroke-width="1.51"/><path d="M-107,1025L-27,1106L-40,930Z" fill="#2b393e" stroke="#2b393e" stroke-width="1.51"/><path d="M-40,930L-27,1106L98,1048Z" fill="#34454c" stroke="#34454c" stroke-width="1.51"/><path d="M98,1048L-27,1106L210,1087Z" fill="#374851" stroke="#374851" stroke-width="1.51"/><path d="M210,1087L-27,1106L286,1112Z" fill="#3c4e5b" stroke="#3c4e5b" stroke-width="1.51"/><path d="M1547,1108L1731,1025L1681,1029Z" fill="#222e2f" stroke="#222e2f" stroke-width="1.51"/><path d="M1681,1029L1731,1025L1669,980Z" fill="#243133" stroke="#243133" stroke-width="1.51"/><path d="M-163,961L-107,1025L-40,930Z" fill="#2d3c41" stroke="#2d3c41" stroke-width="1.51"/><path d="M-107,-132L-181,-69L-87,-50Z" fill="#2f3b44" stroke="#2f3b44" stroke-width="1.51"/><path d="M-171,473L-181,-69L-193,738Z" fill="#3c5060" stroke="#3c5060" stroke-width="1.51"/><path d="M-181,797L-163,961L-40,930Z" fill="#364b50" stroke="#364b50" stroke-width="1.51"/><path d="M-193,738L-163,961L-181,797Z" fill="#3a5155" stroke="#3a5155" stroke-width="1.51"/><path d="M1725,-92L1797,-145L1686,-182Z" fill="#1f282b" stroke="#1f282b" stroke-width="1.51"/><path d="M1758,84L1797,-145L1725,-92Z" fill="#2f3c44" stroke="#2f3c44" stroke-width="1.51"/><path d="M1798,462L1797,-145L1758,84Z" fill="#4e6779" stroke="#4e6779" stroke-width="1.51"/></svg>